<?xml version="1.0" encoding="UTF-8"?>
<svg version="1.1" xmlns="http://www.w3.org/2000/svg" width="219" height="100">
<path d="M0 0 C72.27 0 144.54 0 219 0 C219 33 219 66 219 100 C146.73 100 74.46 100 0 100 C0 67 0 34 0 0 Z " fill="#020201" transform="translate(0,0)"/>
<path d="M0 0 C0.94455551 -0.01268417 1.88911102 -0.02536835 2.86228943 -0.03843689 C3.87590042 -0.03550125 4.88951141 -0.03256561 5.93383789 -0.02954102 C6.98172989 -0.03478287 8.02962189 -0.04002472 9.10926819 -0.04542542 C11.32413853 -0.05184533 13.53904298 -0.05050904 15.75390625 -0.04199219 C19.14067399 -0.03348699 22.5257526 -0.06223783 25.91235352 -0.09399414 C28.0653478 -0.09560638 30.21834507 -0.0950282 32.37133789 -0.09204102 C33.38292465 -0.10327499 34.39451141 -0.11450897 35.43675232 -0.12608337 C39.8433177 -0.08246468 42.47173421 -0.04974236 46.2980957 2.27392578 C48.40933057 4.61512103 49.71415891 6.79355338 51.03149414 9.65405273 C51.45043945 10.54608398 51.86938477 11.43811523 52.30102539 12.35717773 C52.75541992 13.37038086 52.75541992 13.37038086 53.21899414 14.40405273 C54.5918457 14.36924805 54.5918457 14.36924805 55.99243164 14.33374023 C57.18094727 14.31569336 58.36946289 14.29764648 59.59399414 14.27905273 C60.77735352 14.25584961 61.96071289 14.23264648 63.17993164 14.20874023 C66.21899414 14.40405273 66.21899414 14.40405273 68.21899414 16.40405273 C68.59399414 19.34155273 68.59399414 19.34155273 68.21899414 22.40405273 C65.99838904 24.87139173 64.78330211 25.36557719 61.46899414 25.59155273 C60.72649414 25.52967773 59.98399414 25.46780273 59.21899414 25.40405273 C59.70650146 26.38849365 60.19400879 27.37293457 60.69628906 28.38720703 C62.43045995 32.45187517 62.63800565 36.29746368 62.58227539 40.67358398 C62.58302315 41.81690437 62.58302315 41.81690437 62.58378601 42.98332214 C62.58146074 44.58086784 62.57182441 46.17841827 62.55517578 47.77587891 C62.53139145 50.22713611 62.53464973 52.67731732 62.54125977 55.12866211 C62.53568842 56.68530924 62.52858197 58.2419518 62.51977539 59.79858398 C62.5206868 60.53188431 62.52159821 61.26518463 62.52253723 62.02070618 C62.45009981 67.17294707 62.45009981 67.17294707 60.21899414 69.40405273 C57.46899414 69.66967773 57.46899414 69.66967773 54.21899414 69.65405273 C53.14649414 69.65920898 52.07399414 69.66436523 50.96899414 69.66967773 C48.21899414 69.40405273 48.21899414 69.40405273 46.21899414 67.40405273 C46.09399414 63.77905273 46.09399414 63.77905273 46.21899414 60.40405273 C45.07684448 60.41190796 45.07684448 60.41190796 43.91162109 60.41992188 C40.45158722 60.44074798 36.99156655 60.45373087 33.53149414 60.46655273 C32.33331055 60.47493164 31.13512695 60.48331055 29.90063477 60.49194336 C28.74370117 60.49516602 27.58676758 60.49838867 26.39477539 60.50170898 C25.33170166 60.5069458 24.26862793 60.51218262 23.17333984 60.51757812 C20.40554324 60.41122118 17.91106517 60.03300061 15.21899414 59.40405273 C15.12618164 60.51780273 15.12618164 60.51780273 15.03149414 61.65405273 C13.91765162 65.42398125 12.55191553 66.33177001 9.21899414 68.40405273 C6.20259058 69.02790738 3.23019979 69.10158593 0.15649414 69.15405273 C-0.68389404 69.18152588 -1.52428223 69.20899902 -2.39013672 69.23730469 C-4.8537161 69.3116867 -7.31673756 69.35938787 -9.78100586 69.40405273 C-11.68366211 69.46399414 -11.68366211 69.46399414 -13.62475586 69.52514648 C-19.51518549 69.64667234 -19.51518549 69.64667234 -21.78100586 69.40405273 C-25.81842082 65.36663777 -24.85254639 57.68278374 -24.90600586 52.21655273 C-24.69628936 32.36339042 -24.69628936 32.36339042 -20.78100586 25.40405273 C-21.70913086 25.46592773 -22.63725586 25.52780273 -23.59350586 25.59155273 C-26.78100586 25.40405273 -26.78100586 25.40405273 -28.65600586 24.27905273 C-30.2863188 21.5618645 -30.11116251 19.50752528 -29.78100586 16.40405273 C-27.78100586 14.40405273 -27.78100586 14.40405273 -24.74194336 14.20874023 C-22.9669043 14.24354492 -22.9669043 14.24354492 -21.15600586 14.27905273 C-19.37323242 14.30612305 -19.37323242 14.30612305 -17.55444336 14.33374023 C-16.63920898 14.35694336 -15.72397461 14.38014648 -14.78100586 14.40405273 C-14.20092773 13.26516602 -14.20092773 13.26516602 -13.60913086 12.10327148 C-13.08834961 11.1094043 -12.56756836 10.11553711 -12.03100586 9.09155273 C-11.52053711 8.10541992 -11.01006836 7.11928711 -10.48413086 6.10327148 C-7.70531727 1.69923436 -5.21500973 0.03399888 0 0 Z " fill="#AA9763" transform="translate(90.781005859375,2.595947265625)"/>
<path d="M0 0 C1.38702873 -0.02398109 1.38702873 -0.02398109 2.80207825 -0.04844666 C3.80413803 -0.05380936 4.80619781 -0.05917206 5.83862305 -0.06469727 C6.8671489 -0.07372574 7.89567474 -0.08275421 8.95536804 -0.09205627 C11.13509195 -0.10658426 13.31485971 -0.11545181 15.49462891 -0.11914062 C18.82684169 -0.13101974 22.15719299 -0.18016725 25.48901367 -0.23071289 C27.60554108 -0.24017871 29.72207988 -0.24741298 31.83862305 -0.25219727 C33.33260368 -0.28149574 33.33260368 -0.28149574 34.85676575 -0.31138611 C41.78111591 -0.26633482 41.78111591 -0.26633482 45.51196289 2.55737305 C46.51477295 3.91813965 46.51477295 3.91813965 47.5378418 5.30639648 C48.08867432 6.04269287 48.63950684 6.77898926 49.20703125 7.53759766 C60.79325696 26.08535273 61.00924627 42.13326342 59.5378418 63.30639648 C55.9078418 63.30639648 52.2778418 63.30639648 48.5378418 63.30639648 C48.1628418 60.05639648 48.1628418 60.05639648 48.5378418 56.30639648 C51.4753418 54.11889648 51.4753418 54.11889648 54.5378418 52.30639648 C55.49015777 50.1852052 55.49015777 50.1852052 55.5378418 48.30639648 C52.34117877 46.45172879 49.70749608 45.95359612 46.0378418 45.68139648 C45.0994043 45.60663086 44.1609668 45.53186523 43.1940918 45.45483398 C39.80294829 45.26532891 36.4328651 45.30827107 33.0378418 45.36889648 C29.5378418 45.30639648 29.5378418 45.30639648 27.6159668 44.80639648 C25.27139163 44.24228817 23.19573932 44.20848623 20.7878418 44.24389648 C19.98862305 44.25291992 19.1894043 44.26194336 18.3659668 44.27124023 C17.76268555 44.2828418 17.1594043 44.29444336 16.5378418 44.30639648 C16.1459668 43.37827148 15.7540918 42.45014648 15.3503418 41.49389648 C13.33858523 37.95597976 12.22980168 36.90065189 8.5378418 35.30639648 C4.84260227 34.5871644 4.84260227 34.5871644 1.5378418 34.30639648 C1.40506836 33.61932617 1.27229492 32.93225586 1.13549805 32.22436523 C0.95889648 31.32331055 0.78229492 30.42225586 0.6003418 29.49389648 C0.42631836 28.60057617 0.25229492 27.70725586 0.07299805 26.78686523 C-0.43956974 24.19242477 -0.43956974 24.19242477 -1.4621582 21.30639648 C15.6978418 21.30639648 32.8578418 21.30639648 50.5378418 21.30639648 C48.95459064 14.56295151 48.95459064 14.56295151 46.4128418 8.43139648 C46.05963867 7.69147461 45.70643555 6.95155273 45.3425293 6.18920898 C41.88283281 2.57974209 36.2212242 2.21941645 31.38842773 2.04760742 C29.93308013 2.03463434 28.47760007 2.03273996 27.0222168 2.04077148 C26.24396545 2.03885803 25.46571411 2.03694458 24.66387939 2.03497314 C23.03364739 2.03362229 21.40340422 2.03724114 19.77319336 2.0456543 C17.28043627 2.05642849 14.7883902 2.04569202 12.2956543 2.03295898 C10.70450688 2.03427964 9.1133599 2.03684008 7.5222168 2.04077148 C6.78050232 2.03672302 6.03878784 2.03267456 5.27459717 2.02850342 C1.56487522 2.06217242 -1.38657833 2.10624522 -4.4621582 4.30639648 C-6.46314492 7.14912941 -6.46314492 7.14912941 -8.2121582 10.43139648 C-8.82575195 11.52709961 -9.4393457 12.62280273 -10.0715332 13.75170898 C-10.53043945 14.59475586 -10.9893457 15.43780273 -11.4621582 16.30639648 C-12.4621582 13.30639648 -12.4621582 13.30639648 -11.31762695 10.67749023 C-10.49198242 9.22536133 -10.49198242 9.22536133 -9.6496582 7.74389648 C-9.10696289 6.77323242 -8.56426758 5.80256836 -8.00512695 4.80249023 C-5.59815649 0.90868232 -4.48071545 0.05846493 0 0 Z " fill="#040403" transform="translate(90.462158203125,5.693603515625)"/>
<path d="M0 0 C1.14146484 -0.02900391 2.28292969 -0.05800781 3.45898438 -0.08789062 C11.69742347 -0.15048543 11.69742347 -0.15048543 15.9453125 1.8359375 C18.34351152 5.24503656 18.3855314 8.2316772 18.25 12.25 C18.26095703 12.95318359 18.27191406 13.65636719 18.28320312 14.38085938 C18.2351823 17.79674082 17.72724763 20.23321284 16.1953125 23.2890625 C12.54443745 26.23478412 9.55521596 25.94906396 5 25.75 C4.19288574 25.72969727 3.38577148 25.70939453 2.55419922 25.68847656 C-10.84016313 25.22856107 -10.84016313 25.22856107 -15.8125 21.375 C-19.07835066 16.88445534 -18.95094703 11.6499172 -18.3125 6.3125 C-13.71484118 -1.19700941 -8.05031631 0.06749846 0 0 Z " fill="#050503" transform="translate(86.3125,42.6875)"/>
<path d="M0 0 C2.67452546 -0.2924603 5.11383988 -0.3960431 7.7890625 -0.36328125 C8.56631683 -0.36377975 9.34357117 -0.36427826 10.14437866 -0.36479187 C11.79370673 -0.36244828 13.44303817 -0.35270298 15.09228516 -0.33618164 C17.59440888 -0.31278604 20.0954524 -0.31559374 22.59765625 -0.32226562 C24.20313126 -0.3166818 25.80860182 -0.30956752 27.4140625 -0.30078125 C28.15395416 -0.30169266 28.89384583 -0.30260406 29.65615845 -0.30354309 C34.7275665 -0.23580934 39.15193095 0.4623833 44 2 C46.3125 4.609375 46.3125 4.609375 48 7.75 C48.5775 8.77609375 49.155 9.8021875 49.75 10.859375 C51 14 51 14 51 20 C33.84 20 16.68 20 -1 20 C-0.01 21.65 0.98 23.3 2 25 C2.35975418 27.74852193 2.14184108 30.2104588 2 33 C3.03125 32.9175 4.0625 32.835 5.125 32.75 C9.6504277 33.04196308 11.52200909 34.16907717 15 37 C17 40 17 40 17 43 C17.81984375 42.91621094 18.6396875 42.83242188 19.484375 42.74609375 C21.10085937 42.59333984 21.10085937 42.59333984 22.75 42.4375 C24.35101563 42.28087891 24.35101563 42.28087891 25.984375 42.12109375 C28.68723396 42.01255926 30.43993118 42.30528047 33 43 C34.7325 42.7525 34.7325 42.7525 36.5 42.5 C41.46241984 41.79108288 44.44058659 43.10024441 49 45 C49 45.33 49 45.66 49 46 C38.44 46 27.88 46 17 46 C17 46.99 17 47.98 17 49 C22.28 49 27.56 49 33 49 C33 49.33 33 49.66 33 50 C27.72 50 22.44 50 17 50 C17 50.66 17 51.32 17 52 C17.88353149 51.98428955 17.88353149 51.98428955 18.78491211 51.96826172 C21.50239646 51.92620446 24.21981196 51.9005182 26.9375 51.875 C28.32678711 51.84986328 28.32678711 51.84986328 29.74414062 51.82421875 C35.81872962 51.78159006 41.11835079 52.46775498 47 54 C47 54.33 47 54.66 47 55 C25.40459314 57.21491352 25.40459314 57.21491352 16 55 C15.896875 55.763125 15.79375 56.52625 15.6875 57.3125 C14.90989702 60.35222075 14.53922728 61.2100529 12 63 C8.64453125 63.29296875 8.64453125 63.29296875 4.8125 63.1875 C3.54019531 63.16042969 2.26789063 63.13335937 0.95703125 63.10546875 C-0.50669922 63.05326172 -0.50669922 63.05326172 -2 63 C-2 62.67 -2 62.34 -2 62 C-1.33613281 61.98582031 -0.67226562 61.97164062 0.01171875 61.95703125 C0.89472656 61.90933594 1.77773437 61.86164063 2.6875 61.8125 C3.55761719 61.77769531 4.42773438 61.74289063 5.32421875 61.70703125 C9.1599746 60.69349576 10.63986791 59.16776595 13 56 C13.4777751 53.05025809 13.66093018 50.79598201 13.5625 47.875 C13.57345703 47.15957031 13.58441406 46.44414063 13.59570312 45.70703125 C13.56949893 41.57678547 13.56949893 41.57678547 11.28979492 38.31958008 C8.64910144 36.79778156 6.82549193 36.49843834 3.796875 36.26953125 C2.32734375 36.14868164 2.32734375 36.14868164 0.828125 36.02539062 C-0.18765625 35.95513672 -1.2034375 35.88488281 -2.25 35.8125 C-3.28125 35.73064453 -4.3125 35.64878906 -5.375 35.56445312 C-7.91599937 35.36446706 -10.45729756 35.1767705 -13 35 C-13 34.67 -13 34.34 -13 34 C-11.35 34 -9.7 34 -8 34 C-9.32 32.35 -10.64 30.7 -12 29 C-8.17902761 29.53069061 -5.93828597 30.49701566 -3 33 C-2.65286165 28.96983014 -2.65286165 28.96983014 -3 25 C-5.37842577 22.59593616 -5.37842577 22.59593616 -8 21 C-8 20.34 -8 19.68 -8 19 C-8.66 18.34 -9.32 17.68 -10 17 C9.14 17 28.28 17 48 17 C45.13954615 10.03904122 45.13954615 10.03904122 41 4 C39.65016252 3.87814857 38.29425299 3.82233169 36.93920898 3.79467773 C35.64798378 3.7647599 35.64798378 3.7647599 34.33067322 3.73423767 C33.39526199 3.71752518 32.45985077 3.70081268 31.49609375 3.68359375 C30.06657127 3.6524221 30.06657127 3.6524221 28.60816956 3.62062073 C25.5513559 3.55501823 22.49445344 3.49619082 19.4375 3.4375 C17.37043337 3.39432494 15.30337586 3.35071099 13.23632812 3.30664062 C8.15764405 3.19932599 3.0788703 3.09808909 -2 3 C-1.34 2.01 -0.68 1.02 0 0 Z " fill="#9E9166" transform="translate(90,7)"/>
<path d="M0 0 C0.82780975 -0.0159874 1.65561951 -0.03197479 2.5085144 -0.04844666 C3.40434235 -0.05380936 4.30017029 -0.05917206 5.22314453 -0.06469727 C6.60302048 -0.07823997 6.60302048 -0.07823997 8.01077271 -0.09205627 C9.95929703 -0.10657994 11.90787036 -0.11545075 13.85644531 -0.11914062 C16.83758852 -0.13103026 19.81665772 -0.18018828 22.79736328 -0.23071289 C24.68928024 -0.24017758 26.58120994 -0.2474124 28.47314453 -0.25219727 C29.36492401 -0.27172958 30.25670349 -0.2912619 31.17550659 -0.31138611 C37.37277665 -0.26623003 37.37277665 -0.26623003 40.46582031 2.64599609 C44.98095703 10.5740407 44.98095703 10.5740407 44.98095703 14.30639648 C26.83095703 14.30639648 8.68095703 14.30639648 -10.01904297 14.30639648 C-11.01904297 11.30639648 -11.01904297 11.30639648 -10.09326172 9.11499023 C-9.63564453 8.3325293 -9.17802734 7.55006836 -8.70654297 6.74389648 C-8.25666016 5.95885742 -7.80677734 5.17381836 -7.34326172 4.36499023 C-5.13971477 0.93941725 -3.9924948 0.05822124 0 0 Z " fill="#070705" transform="translate(93.01904296875,9.693603515625)"/>
<path d="M0 0 C2.29141286 -0.05384521 4.58318188 -0.09272087 6.875 -0.125 C8.78925781 -0.15980469 8.78925781 -0.15980469 10.7421875 -0.1953125 C14 0 14 0 16 2 C16.375 4.9375 16.375 4.9375 16 8 C13.7793949 10.467339 12.56430797 10.96152446 9.25 11.1875 C8.5075 11.125625 7.765 11.06375 7 11 C7.48750732 11.98444092 7.97501465 12.96888184 8.47729492 13.9831543 C10.2114658 18.04782244 10.41901151 21.89341095 10.36328125 26.26953125 C10.36402901 27.41285164 10.36402901 27.41285164 10.36479187 28.57926941 C10.3624666 30.1768151 10.35283027 31.77436554 10.33618164 33.37182617 C10.31239731 35.82308338 10.31565559 38.27326459 10.32226562 40.72460938 C10.31669428 42.2812565 10.30958783 43.83789906 10.30078125 45.39453125 C10.30214836 46.49448174 10.30214836 46.49448174 10.30354309 47.61665344 C10.23110567 52.76889433 10.23110567 52.76889433 8 55 C5.25 55.265625 5.25 55.265625 2 55.25 C0.9275 55.25515625 -0.145 55.2603125 -1.25 55.265625 C-4 55 -4 55 -6 53 C-6.125 49.375 -6.125 49.375 -6 46 C-7.485 45.505 -7.485 45.505 -9 45 C-8.67 44.67 -8.34 44.34 -8 44 C-14.98846636 43.38659229 -21.88297086 42.93984327 -28.8984375 43.03125 C-31.35525357 42.99471742 -33.62681437 42.6328495 -36 42 C-36 40.02 -36 38.04 -36 36 C-21.15 35.505 -21.15 35.505 -6 35 C-6 34.67 -6 34.34 -6 34 C-2.85375007 33.73781251 -1.38162983 33.75245633 1.3125 35.5 C1.869375 35.995 2.42625 36.49 3 37 C2.65930765 40.15140423 2.41923159 41.60781561 0.0625 43.8125 C-2 45 -2 45 -4 45 C-4 47.31 -4 49.62 -4 52 C-0.37 52 3.26 52 7 52 C6.95551701 47.32199999 6.88534653 42.64530775 6.79248047 37.96801758 C6.76444659 36.38055899 6.74314552 34.79296538 6.72900391 33.20532227 C6.79235187 21.54500477 6.79235187 21.54500477 2.82421875 10.74804688 C1.37659274 7.67784478 2.18380295 5.19677177 3 2 C2.01 2 1.02 2 0 2 C0 1.34 0 0.68 0 0 Z " fill="#766B49" transform="translate(143,17)"/>
<path d="M0 0 C2.29141286 -0.05384521 4.58318188 -0.09272087 6.875 -0.125 C8.78925781 -0.15980469 8.78925781 -0.15980469 10.7421875 -0.1953125 C14 0 14 0 16 2 C16.375 4.9375 16.375 4.9375 16 8 C13.7793949 10.467339 12.56430797 10.96152446 9.25 11.1875 C8.5075 11.125625 7.765 11.06375 7 11 C7.48895752 11.98299072 7.97791504 12.96598145 8.48168945 13.97875977 C10.26913651 18.16786097 10.38856136 21.83642149 10.29296875 26.33984375 C10.28872391 27.10680069 10.28447906 27.87375763 10.28010559 28.66395569 C10.2634507 31.08884332 10.22582553 33.51286798 10.1875 35.9375 C10.17243601 37.59178478 10.15875062 39.24608273 10.14648438 40.90039062 C10.11359077 44.93392103 10.06190249 48.96681473 10 53 C7.27157939 54.36421031 5.39046682 53.87807211 2.375 53.5625 C1.37210938 53.46066406 0.36921875 53.35882813 -0.6640625 53.25390625 C-1.43492187 53.17011719 -2.20578125 53.08632812 -3 53 C-3 52.67 -3 52.34 -3 52 C0.3 52 3.6 52 7 52 C6.95551701 47.32199999 6.88534653 42.64530775 6.79248047 37.96801758 C6.76444659 36.38055899 6.74314552 34.79296538 6.72900391 33.20532227 C6.79235187 21.54500477 6.79235187 21.54500477 2.82421875 10.74804688 C1.37659274 7.67784478 2.18380295 5.19677177 3 2 C2.01 2 1.02 2 0 2 C0 1.34 0 0.68 0 0 Z " fill="#8B7547" transform="translate(143,17)"/>
<path d="M0 0 C0.94455551 -0.01268417 1.88911102 -0.02536835 2.86228943 -0.03843689 C3.87590042 -0.03550125 4.88951141 -0.03256561 5.93383789 -0.02954102 C6.98172989 -0.03478287 8.02962189 -0.04002472 9.10926819 -0.04542542 C11.32413853 -0.05184533 13.53904298 -0.05050904 15.75390625 -0.04199219 C19.14067399 -0.03348699 22.5257526 -0.06223783 25.91235352 -0.09399414 C28.0653478 -0.09560638 30.21834507 -0.0950282 32.37133789 -0.09204102 C33.38292465 -0.10327499 34.39451141 -0.11450897 35.43675232 -0.12608337 C39.8721431 -0.08217935 42.47294083 -0.05572293 46.31176758 2.31005859 C48.11857068 4.29379518 49.38447743 5.98729324 50.53149414 8.40405273 C50.85762695 9.06405273 51.18375977 9.72405273 51.51977539 10.40405273 C52.21899414 12.40405273 52.21899414 12.40405273 52.21899414 16.40405273 C53.20899414 16.40405273 54.19899414 16.40405273 55.21899414 16.40405273 C55.21899414 18.71405273 55.21899414 21.02405273 55.21899414 23.40405273 C53.03969282 21.37972567 51.58694509 19.51521608 50.24633789 16.86499023 C49.9040918 16.20241211 49.5618457 15.53983398 49.20922852 14.85717773 C48.50345845 13.46396929 47.79772973 12.07073989 47.09204102 10.67749023 C45.35785167 6.89497801 45.35785167 6.89497801 42.21899414 4.40405273 C40.73511023 4.2743168 39.24584309 4.20358107 37.75683594 4.16357422 C36.83215012 4.13782822 35.90746429 4.11208221 34.95475769 4.08555603 C30.72404467 4.0013895 26.49350599 3.93554847 22.26220703 3.88916016 C20.03014787 3.85749398 17.79825758 3.80971291 15.56689453 3.74560547 C12.35002356 3.65442945 9.13618014 3.61556405 5.91821289 3.58764648 C4.9222258 3.54949326 3.92623871 3.51134003 2.90007019 3.47203064 C-2.30170561 3.39570331 -2.30170561 3.39570331 -6.49032593 6.09988403 C-7.8070758 8.15917706 -8.82844079 10.15530769 -9.78100586 12.40405273 C-10.09568314 13.08878159 -10.41036041 13.77351044 -10.73457336 14.47898865 C-11.45895082 16.10248412 -12.12670098 17.75107198 -12.78100586 19.40405273 C-13.11100586 18.41405273 -13.44100586 17.42405273 -13.78100586 16.40405273 C-14.29663086 16.61030273 -14.81225586 16.81655273 -15.34350586 17.02905273 C-18.81366257 17.562923 -21.48736377 16.48082034 -24.78100586 15.40405273 C-24.78100586 15.07405273 -24.78100586 14.74405273 -24.78100586 14.40405273 C-21.48100586 14.40405273 -18.18100586 14.40405273 -14.78100586 14.40405273 C-14.20092773 13.26516602 -14.20092773 13.26516602 -13.60913086 12.10327148 C-13.08834961 11.1094043 -12.56756836 10.11553711 -12.03100586 9.09155273 C-11.52053711 8.10541992 -11.01006836 7.11928711 -10.48413086 6.10327148 C-7.70531727 1.69923436 -5.21500973 0.03399888 0 0 Z " fill="#B8AE78" transform="translate(90.781005859375,2.595947265625)"/>
<path d="M0 0 C1.65 0 3.3 0 5 0 C5 1.98 5 3.96 5 6 C6.32 6 7.64 6 9 6 C9 4.02 9 2.04 9 0 C10.65 0 12.3 0 14 0 C13.67 4.62 13.34 9.24 13 14 C13.99 14 14.98 14 16 14 C16 9.71 16 5.42 16 1 C16.99 1 17.98 1 19 1 C19 5.29 19 9.58 19 14 C20.32 14 21.64 14 23 14 C22.505 7.565 22.505 7.565 22 1 C26.97800028 2.24450007 27.3746324 3.79941184 30 8 C30.66 8.33 31.32 8.66 32 9 C31.67 6.36 31.34 3.72 31 1 C32.485 1.495 32.485 1.495 34 2 C33.67 5.96 33.34 9.92 33 14 C32.34 14 31.68 14 31 14 C29.7109375 12.5390625 29.7109375 12.5390625 28.375 10.625 C27.92898437 9.99851562 27.48296875 9.37203125 27.0234375 8.7265625 C26 7 26 7 26 5 C25.34 5 24.68 5 24 5 C24.33 8.3 24.66 11.6 25 15 C23.27111445 15.16955795 21.54187557 15.33551514 19.8125 15.5 C18.84957031 15.5928125 17.88664062 15.685625 16.89453125 15.78125 C14.24812333 15.98124844 11.65239135 16.03879183 9 16 C9 13.36 9 10.72 9 8 C7.35 8 5.7 8 4 8 C4.33 10.31 4.66 12.62 5 15 C3.68 15 2.36 15 1 15 C0.67 10.05 0.34 5.1 0 0 Z " fill="#6D6243" transform="translate(157,82)"/>
<path d="M0 0 C0.33 0 0.66 0 1 0 C1 4.29 1 8.58 1 13 C6.28 13 11.56 13 17 13 C17 13.33 17 13.66 17 14 C15.83082031 14.01417969 14.66164063 14.02835938 13.45703125 14.04296875 C11.90881543 14.08988438 10.36063956 14.13813169 8.8125 14.1875 C8.04357422 14.19330078 7.27464844 14.19910156 6.48242188 14.20507812 C2.3068636 14.36636578 0.43307969 14.67897198 -3.01953125 17.23828125 C-6.06263431 21.48181944 -5.76866933 24.97472092 -5 30 C-3.38727433 33.68623011 -2.369675 34.75355 1 37 C3.48082495 37.40960701 3.48082495 37.40960701 6.25390625 37.52734375 C7.27291016 37.59759766 8.29191406 37.66785156 9.34179688 37.74023438 C11.49258955 37.8719688 13.64363995 37.99955939 15.79492188 38.12304688 C16.81263672 38.19458984 17.83035156 38.26613281 18.87890625 38.33984375 C19.8129126 38.39519287 20.74691895 38.45054199 21.70922852 38.50756836 C24 39 24 39 26 42 C-0.07471923 43.52738941 -0.07471923 43.52738941 -5 43 C-9.0263728 38.9736272 -8.08817177 31.21305245 -8.1875 25.75 C-8.1479005 19.04184473 -7.2075712 12.58773215 -6 6 C-5.67 6 -5.34 6 -5 6 C-5 8.64 -5 11.28 -5 14 C-4.34 13.67 -3.68 13.34 -3 13 C-2.34444881 10.47266765 -2.34444881 10.47266765 -2 8 C-1.67 8 -1.34 8 -1 8 C-0.67 5.36 -0.34 2.72 0 0 Z " fill="#998251" transform="translate(74,29)"/>
<path d="M0 0 C3.47936746 0.09991427 6.73880368 0.7896591 10 2 C11.375 4.5625 11.375 4.5625 12 7 C14.04105639 7.88693303 14.04105639 7.88693303 16 8 C15.360625 8.433125 14.72125 8.86625 14.0625 9.3125 C11.26972297 12.9515731 11.47471222 15.94924092 11.37109375 20.44140625 C11 23 11 23 9.609375 24.859375 C8 26 8 26 5.8125 25.6875 C5.214375 25.460625 4.61625 25.23375 4 25 C3.70658112 19.32723489 3.99440348 16.00932754 7 11 C6.071875 11.061875 5.14375 11.12375 4.1875 11.1875 C1 11 1 11 -0.875 9.875 C-2.50531294 7.15781176 -2.33015665 5.10347254 -2 2 C-1.34 1.34 -0.68 0.68 0 0 Z " fill="#856E44" transform="translate(63,17)"/>
<path d="M0 0 C0.33 0.99 0.66 1.98 1 3 C4.63 3 8.26 3 12 3 C11.67 3.66 11.34 4.32 11 5 C8.03 5 5.06 5 2 5 C2 5.99 2 6.98 2 8 C7.28 8 12.56 8 18 8 C18 8.33 18 8.66 18 9 C12.72 9 7.44 9 2 9 C2 9.66 2 10.32 2 11 C2.589021 10.98952637 3.17804199 10.97905273 3.78491211 10.96826172 C6.50239646 10.92620446 9.21981196 10.9005182 11.9375 10.875 C13.32678711 10.84986328 13.32678711 10.84986328 14.74414062 10.82421875 C20.81872962 10.78159006 26.11835079 11.46775498 32 13 C32 13.33 32 13.66 32 14 C10.40459314 16.21491352 10.40459314 16.21491352 1 14 C0.896875 14.763125 0.79375 15.52625 0.6875 16.3125 C-0.09010298 19.35222075 -0.46077272 20.2100529 -3 22 C-6.35546875 22.29296875 -6.35546875 22.29296875 -10.1875 22.1875 C-12.09595703 22.14689453 -12.09595703 22.14689453 -14.04296875 22.10546875 C-15.01878906 22.07066406 -15.99460937 22.03585938 -17 22 C-17 21.67 -17 21.34 -17 21 C-16.33613281 20.98582031 -15.67226562 20.97164062 -14.98828125 20.95703125 C-8.99880353 20.63909203 -8.99880353 20.63909203 -3.9375 17.5625 C-0.99049332 13.664846 -0.77118184 11.23722114 -0.4375 6.375 C-0.35371094 5.18648437 -0.26992187 3.99796875 -0.18359375 2.7734375 C-0.09271484 1.40058594 -0.09271484 1.40058594 0 0 Z " fill="#EEE8A4" transform="translate(105,48)"/>
<path d="M0 0 C0.33 0 0.66 0 1 0 C1 2.31 1 4.62 1 7 C2.794375 6.87625 2.794375 6.87625 4.625 6.75 C9.09747065 6.74207009 11.53555096 8.11295913 15 11 C17 14 17 14 17 17 C18.22976562 16.87431641 18.22976562 16.87431641 19.484375 16.74609375 C20.56203125 16.64425781 21.6396875 16.54242188 22.75 16.4375 C23.81734375 16.33308594 24.8846875 16.22867188 25.984375 16.12109375 C28.68723396 16.01255926 30.43993118 16.30528047 33 17 C34.7325 16.7525 34.7325 16.7525 36.5 16.5 C41.46241984 15.79108288 44.44058659 17.10024441 49 19 C49 19.33 49 19.66 49 20 C41.41 20 33.82 20 26 20 C26 19.67 26 19.34 26 19 C22.7 18.67 19.4 18.34 16 18 C15.67 21.3 15.34 24.6 15 28 C14.67 28 14.34 28 14 28 C13.97421875 27.02417969 13.9484375 26.04835938 13.921875 25.04296875 C13.86515625 23.77066406 13.8084375 22.49835937 13.75 21.1875 C13.70359375 19.92292969 13.6571875 18.65835938 13.609375 17.35546875 C13.33656309 14.00444737 13.33656309 14.00444737 11.28710938 12.3359375 C8.64564771 10.79301711 6.83598495 10.49923142 3.796875 10.26953125 C2.32734375 10.14868164 2.32734375 10.14868164 0.828125 10.02539062 C-0.18765625 9.95513672 -1.2034375 9.88488281 -2.25 9.8125 C-3.28125 9.73064453 -4.3125 9.64878906 -5.375 9.56445312 C-7.91599937 9.36446706 -10.45729756 9.1767705 -13 9 C-13 8.67 -13 8.34 -13 8 C-11.35 8 -9.7 8 -8 8 C-9.32 6.35 -10.64 4.7 -12 3 C-8.17902761 3.53069061 -5.93828597 4.49701566 -3 7 C-3 5.02 -3 3.04 -3 1 C-2.67 1 -2.34 1 -2 1 C-2 2.98 -2 4.96 -2 7 C-1.34 7 -0.68 7 0 7 C0 4.69 0 2.38 0 0 Z " fill="#B7AA76" transform="translate(90,33)"/>
<path d="M0 0 C3.58072917 0.06510417 7.16145833 0.13020833 10.7421875 0.1953125 C10.4121875 5.1453125 10.0821875 10.0953125 9.7421875 15.1953125 C4.7921875 15.1953125 -0.1578125 15.1953125 -5.2578125 15.1953125 C-4.9278125 13.8753125 -4.5978125 12.5553125 -4.2578125 11.1953125 C-3.9278125 11.8553125 -3.5978125 12.5153125 -3.2578125 13.1953125 C-1.6078125 13.1953125 0.0421875 13.1953125 1.7421875 13.1953125 C1.7421875 12.2053125 1.7421875 11.2153125 1.7421875 10.1953125 C-0.5678125 9.2053125 -2.8778125 8.2153125 -5.2578125 7.1953125 C-5.3828125 4.8203125 -5.3828125 4.8203125 -5.2578125 2.1953125 C-3.2578125 0.1953125 -3.2578125 0.1953125 0 0 Z " fill="#23231B" transform="translate(121.2578125,81.8046875)"/>
<path d="M0 0 C3.96 0 7.92 0 12 0 C11.67 4.62 11.34 9.24 11 14 C12.32 14 13.64 14 15 14 C15.33 13.01 15.66 12.02 16 11 C16.33 12.32 16.66 13.64 17 15 C8.585 15.495 8.585 15.495 0 16 C0 10.72 0 5.44 0 0 Z " fill="#363020" transform="translate(28,82)"/>
<path d="M0 0 C1.65 0 3.3 0 5 0 C4.67 4.62 4.34 9.24 4 14 C7.05383204 12.47308398 7.38086503 10.04783744 8.625 6.9375 C9.07101563 5.83277344 9.51703125 4.72804688 9.9765625 3.58984375 C10.48316406 2.30787109 10.48316406 2.30787109 11 1 C11.66 1 12.32 1 13 1 C16.25968109 10.41002278 16.25968109 10.41002278 17 15 C16.01 15 15.02 15 14 15 C14 13.68 14 12.36 14 11 C12.02 11 10.04 11 8 11 C8 12.32 8 13.64 8 15 C5.36 15 2.72 15 0 15 C0.33 12.69 0.66 10.38 1 8 C-0.98 8 -2.96 8 -5 8 C-4.67 10.31 -4.34 12.62 -4 15 C-5.32 14.67 -6.64 14.34 -8 14 C-7.67 9.71 -7.34 5.42 -7 1 C-6.34 1 -5.68 1 -5 1 C-5 2.65 -5 4.3 -5 6 C-3.35 6 -1.7 6 0 6 C0 4.02 0 2.04 0 0 Z " fill="#7B7958" transform="translate(97,82)"/>
<path d="M0 0 C7.2 -0.48 7.2 -0.48 10.5 1.5 C12.75389302 5.25648836 12.48380069 7.64579381 12 12 C10.765625 13.734375 10.765625 13.734375 9 15 C6.73828125 15.29296875 6.73828125 15.29296875 4.3125 15.1875 C2.889375 15.125625 1.46625 15.06375 0 15 C0 10.05 0 5.1 0 0 Z " fill="#5F5236" transform="translate(193,82)"/>
<path d="M0 0 C2 2 2 2 2.4375 4.875 C2 8 2 8 -0.0625 10.375 C-3.66561318 12.36821155 -5.9391427 12.45971969 -10 12 C-12 10 -12 10 -12.4375 7.125 C-12 4 -12 4 -9.9375 1.625 C-6.33438682 -0.36821155 -4.0608573 -0.45971969 0 0 Z " fill="#8E7C51" transform="translate(146,35)"/>
<path d="M0 0 C1.38702873 -0.02398109 1.38702873 -0.02398109 2.80207825 -0.04844666 C3.80413803 -0.05380936 4.80619781 -0.05917206 5.83862305 -0.06469727 C6.8671489 -0.07372574 7.89567474 -0.08275421 8.95536804 -0.09205627 C11.13509195 -0.10658426 13.31485971 -0.11545181 15.49462891 -0.11914062 C18.82684169 -0.13101974 22.15719299 -0.18016725 25.48901367 -0.23071289 C27.60554108 -0.24017871 29.72207988 -0.24741298 31.83862305 -0.25219727 C33.33260368 -0.28149574 33.33260368 -0.28149574 34.85676575 -0.31138611 C41.79937561 -0.26621601 41.79937561 -0.26621601 45.60546875 2.68505859 C47.43935829 5.17279984 49.02411031 7.54618483 50.4128418 10.30639648 C50.84338867 11.13139648 51.27393555 11.95639648 51.7175293 12.80639648 C52.67609424 15.72773726 52.38193081 17.38855793 51.5378418 20.30639648 C51.2078418 20.30639648 50.8778418 20.30639648 50.5378418 20.30639648 C50.36768555 19.73791992 50.1975293 19.16944336 50.0222168 18.58374023 C48.38879755 13.37938849 46.84173625 8.68182427 43.5378418 4.30639648 C37.95709895 2.49141037 32.85691938 2.00857273 27.0222168 2.04077148 C26.24396545 2.03885803 25.46571411 2.03694458 24.66387939 2.03497314 C23.03364739 2.03362229 21.40340422 2.03724114 19.77319336 2.0456543 C17.28043627 2.05642849 14.7883902 2.04569202 12.2956543 2.03295898 C10.70450688 2.03427964 9.1133599 2.03684008 7.5222168 2.04077148 C6.78050232 2.03672302 6.03878784 2.03267456 5.27459717 2.02850342 C1.56487522 2.06217242 -1.38657833 2.10624522 -4.4621582 4.30639648 C-6.46314492 7.14912941 -6.46314492 7.14912941 -8.2121582 10.43139648 C-8.82575195 11.52709961 -9.4393457 12.62280273 -10.0715332 13.75170898 C-10.53043945 14.59475586 -10.9893457 15.43780273 -11.4621582 16.30639648 C-12.4621582 13.30639648 -12.4621582 13.30639648 -11.31762695 10.67749023 C-10.49198242 9.22536133 -10.49198242 9.22536133 -9.6496582 7.74389648 C-9.10696289 6.77323242 -8.56426758 5.80256836 -8.00512695 4.80249023 C-5.59815649 0.90868232 -4.48071545 0.05846493 0 0 Z " fill="#0C0907" transform="translate(90.462158203125,5.693603515625)"/>
<path d="M0 0 C2.69761478 -0.27980375 5.16250152 -0.37203542 7.859375 -0.328125 C8.64137268 -0.32625183 9.42337036 -0.32437866 10.22906494 -0.32244873 C11.88680266 -0.31571885 13.54452426 -0.3017858 15.20214844 -0.28125 C17.72606353 -0.25029359 20.24935196 -0.24029777 22.7734375 -0.234375 C24.38542419 -0.22519617 25.99740458 -0.21481762 27.609375 -0.203125 C28.35958923 -0.19887512 29.10980347 -0.19462524 29.88275146 -0.19024658 C34.01817342 -0.13458799 37.94146972 0.20110193 42 1 C42 1.66 42 2.32 42 3 C27.48 3 12.96 3 -2 3 C-1.34 2.01 -0.68 1.02 0 0 Z " fill="#B8B17B" transform="translate(90,7)"/>
<path d="M0 0 C19.47 0 38.94 0 59 0 C59.495 0.99 59.495 0.99 60 2 C52.09843222 2.21890084 44.19653512 2.41384158 36.29394531 2.59204102 C33.60490273 2.65378338 30.91621857 2.72317816 28.22753906 2.79907227 C24.3654277 2.9052447 20.50330459 2.9916752 16.640625 3.07421875 C14.83419525 3.1302552 14.83419525 3.1302552 12.99127197 3.18742371 C11.87041199 3.20767105 10.749552 3.2279184 9.59472656 3.2487793 C8.11579926 3.28541939 8.11579926 3.28541939 6.60699463 3.32279968 C4 3 4 3 0 0 Z " fill="#D6CA8A" transform="translate(80,24)"/>
<path d="M0 0 C2.29141286 -0.05384521 4.58318188 -0.09272087 6.875 -0.125 C8.78925781 -0.15980469 8.78925781 -0.15980469 10.7421875 -0.1953125 C14 0 14 0 16 2 C16.375 4.9375 16.375 4.9375 16 8 C13.7793949 10.467339 12.56430797 10.96152446 9.25 11.1875 C8.5075 11.125625 7.765 11.06375 7 11 C6.67 11.66 6.34 12.32 6 13 C6 12.01 6 11.02 6 10 C7.65 10 9.3 10 11 10 C11 9.34 11 8.68 11 8 C8.69 8 6.38 8 4 8 C3.67 6.02 3.34 4.04 3 2 C2.01 2 1.02 2 0 2 C0 1.34 0 0.68 0 0 Z " fill="#9C8250" transform="translate(143,17)"/>
<path d="M0 0 C3.3 0 6.6 0 10 0 C10.33 1.65 10.66 3.3 11 5 C10.01 5 9.02 5 8 5 C8 6.65 8 8.3 8 10 C6.68 9.67 5.36 9.34 4 9 C4 10.65 4 12.3 4 14 C5.65 14 7.3 14 9 14 C9.33 13.01 9.66 12.02 10 11 C10.33 12.32 10.66 13.64 11 15 C7.7 15 4.4 15 1 15 C0.67 10.05 0.34 5.1 0 0 Z " fill="#544632" transform="translate(207,82)"/>
<path d="M0 0 C0.6084375 0.13277344 1.216875 0.26554687 1.84375 0.40234375 C8.48006609 1.73936626 14.93617341 2.34041081 21.69140625 2.48217773 C23.69140625 2.55859375 23.69140625 2.55859375 27 3 C27.99 4.485 27.99 4.485 29 6 C4.62169141 7.42801808 4.62169141 7.42801808 -2 7 C-3 6 -3 6 -3.0625 3.4375 C-3.041875 2.633125 -3.02125 1.82875 -3 1 C-2.67 1.99 -2.34 2.98 -2 4 C-0.35 4 1.3 4 3 4 C2.01 3.67 1.02 3.34 0 3 C0 2.01 0 1.02 0 0 Z " fill="#A99A66" transform="translate(71,65)"/>
<path d="M0 0 C0.08075665 2.29109597 0.13907731 4.58299267 0.1875 6.875 C0.22230469 8.15117188 0.25710937 9.42734375 0.29296875 10.7421875 C0.19628906 11.81726563 0.09960938 12.89234375 0 14 C-3.8503105 16.56687367 -5.58569763 15.83288724 -10 15 C-10 13.68 -10 12.36 -10 11 C-9.34 11 -8.68 11 -8 11 C-7.67 11.66 -7.34 12.32 -7 13 C-5.35 13 -3.7 13 -2 13 C-2 12.01 -2 11.02 -2 10 C-3.134375 9.5875 -4.26875 9.175 -5.4375 8.75 C-9 7 -9 7 -10.125 5 C-10 3 -10 3 -9 1.25 C-6.063818 -0.58511375 -3.39250578 -0.07853023 0 0 Z " fill="#242119" transform="translate(60,82)"/>
<path d="M0 0 C0.66 0 1.32 0 2 0 C2 1.98 2 3.96 2 6 C3.32 6 4.64 6 6 6 C6 4.35 6 2.7 6 1 C6.99 1 7.98 1 9 1 C8.814375 1.804375 8.62875 2.60875 8.4375 3.4375 C8.2209375 4.7059375 8.2209375 4.7059375 8 6 C8.33 6.33 8.66 6.66 9 7 C9.125 10 9.125 10 9 13 C8 14 8 14 5.93359375 14.09765625 C2.46679688 14.04882812 2.46679688 14.04882812 -1 14 C-0.67 9.38 -0.34 4.76 0 0 Z " fill="#979167" transform="translate(77,83)"/>
<path d="M0 0 C1.65 0 3.3 0 5 0 C5 1.98 5 3.96 5 6 C6.32 6 7.64 6 9 6 C9 4.02 9 2.04 9 0 C10.65 0 12.3 0 14 0 C13.67 4.62 13.34 9.24 13 14 C12.67 14 12.34 14 12 14 C12 9.71 12 5.42 12 1 C11.34 1 10.68 1 10 1 C10 5.29 10 9.58 10 14 C9.67 14 9.34 14 9 14 C9 12.02 9 10.04 9 8 C7.35 8 5.7 8 4 8 C4.33 10.31 4.66 12.62 5 15 C3.68 15 2.36 15 1 15 C0.67 10.05 0.34 5.1 0 0 Z " fill="#4F4833" transform="translate(157,82)"/>
<path d="M0 0 C2.3907127 2.60805022 3.28134916 4.79522444 4 8.1875 C4.33 9.445625 4.66 10.70375 5 12 C5.99 12.33 6.98 12.66 8 13 C8 8.71 8 4.42 8 0 C12.51202391 1.12800598 12.89528315 1.66820097 15.3125 5.375 C15.84488281 6.16648437 16.37726562 6.95796875 16.92578125 7.7734375 C18 10 18 10 17 13 C16.66226562 12.50628906 16.32453125 12.01257813 15.9765625 11.50390625 C15.53054687 10.86324219 15.08453125 10.22257812 14.625 9.5625 C14.18414062 8.92441406 13.74328125 8.28632812 13.2890625 7.62890625 C12.07839147 5.86259072 12.07839147 5.86259072 10 5 C10.33 7.97 10.66 10.94 11 14 C8.03 14 5.06 14 2 14 C1.46658816 12.42085985 0.94874237 10.83645613 0.4375 9.25 C0.14746094 8.36828125 -0.14257812 7.4865625 -0.44140625 6.578125 C-1.01697435 3.92165684 -0.89248371 2.52968894 0 0 Z " fill="#372D1F" transform="translate(7,83)"/>
<path d="M0 0 C2.5 0.25 2.5 0.25 4.5 2.25 C4.81537716 6.58643601 4.94897847 8.57653229 2.5 12.25 C0 12.5625 0 12.5625 -2.5 12.25 C-4.5 10.25 -4.5 10.25 -4.765625 8.375 C-4.76046875 7.67375 -4.7553125 6.9725 -4.75 6.25 C-4.75515625 5.54875 -4.7603125 4.8475 -4.765625 4.125 C-4.31971142 0.97737476 -3.03899237 0.30389924 0 0 Z " fill="#8C7A4F" transform="translate(74.5,47.75)"/>
<path d="M0 0 C3.90790955 0.57894956 6.29553168 2.14528344 9 5 C9.3125 8.75 9.3125 8.75 9 12 C8.401875 11.505 7.80375 11.01 7.1875 10.5 C5.02970006 8.71723582 5.02970006 8.71723582 2 9 C2.99 9.99 3.98 10.98 5 12 C3.02 12 1.04 12 -1 12 C-1.02698189 10.37509046 -1.04638757 8.75005367 -1.0625 7.125 C-1.07410156 6.22007813 -1.08570312 5.31515625 -1.09765625 4.3828125 C-1 2 -1 2 0 0 Z " fill="#14110C" transform="translate(77,28)"/>
<path d="M0 0 C3.31242312 -0.0588996 6.62470851 -0.09389398 9.9375 -0.125 C11.32678711 -0.15013672 11.32678711 -0.15013672 12.74414062 -0.17578125 C18.81872962 -0.21840994 24.11835079 0.46775498 30 2 C30 2.33 30 2.66 30 3 C5.64153405 5.4983042 5.64153405 5.4983042 0 2 C0 1.34 0 0.68 0 0 Z " fill="#C2BD84" transform="translate(107,59)"/>
<path d="M0 0 C7.11557789 -0.48241206 7.11557789 -0.48241206 10.75 1.5 C14.70575218 5.8952802 17 10.04334205 17 16 C17.99 16 18.98 16 20 16 C20 18.31 20 20.62 20 23 C16.0730193 19.77033363 14.25504582 14.91266495 12.04882812 10.44921875 C10.17421115 6.7866723 8.71123152 4.07859199 5 2 C2.35065178 1.28566879 2.35065178 1.28566879 0 1 C0 0.67 0 0.34 0 0 Z " fill="#AA9865" transform="translate(126,3)"/>
<path d="M0 0 C1.670625 0.061875 1.670625 0.061875 3.375 0.125 C3.045 1.445 2.715 2.765 2.375 4.125 C0.395 3.465 -1.585 2.805 -3.625 2.125 C-3.625 3.445 -3.625 4.765 -3.625 6.125 C-2.67625 6.24875 -1.7275 6.3725 -0.75 6.5 C2.375 7.125 2.375 7.125 4.375 9.125 C4 12.25 4 12.25 3.375 15.125 C-2.25 16.25 -2.25 16.25 -5.625 15.125 C-5.295 13.805 -4.965 12.485 -4.625 11.125 C-3.965 11.785 -3.305 12.445 -2.625 13.125 C-0.05438689 13.77267793 -0.05438689 13.77267793 2.375 14.125 C2.41789755 12.19390419 2.41789755 12.19390419 1.375 10.125 C-2.11297488 8.33228609 -2.11297488 8.33228609 -5.625 7.125 C-5.75 4.75 -5.75 4.75 -5.625 2.125 C-3.625 0.125 -3.625 0.125 0 0 Z " fill="#4E4B35" transform="translate(151.625,81.875)"/>
<path d="M0 0 C1.65 0 3.3 0 5 0 C6.38226016 2.76452033 6.09525387 5.0461363 6.0625 8.125 C6.05347656 9.22070312 6.04445313 10.31640625 6.03515625 11.4453125 C6.02355469 12.28835937 6.01195312 13.13140625 6 14 C4.35 14.33 2.7 14.66 1 15 C-0.03590199 9.94997778 -0.10251672 5.12583611 0 0 Z " fill="#030101" transform="translate(23,82)"/>
<path d="M0 0 C1.65 0 3.3 0 5 0 C4.67 4.62 4.34 9.24 4 14 C3.67 14 3.34 14 3 14 C3 9.71 3 5.42 3 1 C2.34 1 1.68 1 1 1 C1 3.31 1 5.62 1 8 C-0.98 8 -2.96 8 -5 8 C-4.67 10.31 -4.34 12.62 -4 15 C-5.32 14.67 -6.64 14.34 -8 14 C-7.67 9.71 -7.34 5.42 -7 1 C-6.34 1 -5.68 1 -5 1 C-5 2.65 -5 4.3 -5 6 C-3.35 6 -1.7 6 0 6 C0 4.02 0 2.04 0 0 Z " fill="#6E6B4E" transform="translate(97,82)"/>
<path d="M0 0 C5 1 5 1 6 2 C6.27314815 7.73611111 6.27314815 7.73611111 6 10 C5.34 10.66 4.68 11.32 4 12 C2.68 12 1.36 12 0 12 C0 8.04 0 4.08 0 0 Z " fill="#030201" transform="translate(197,84)"/>
<path d="M0 0 C3.3 0 6.6 0 10 0 C9.34 0.66 8.68 1.32 8 2 C7.75660449 4.89883083 7.75660449 4.89883083 7.875 8.125 C7.89304688 9.22070312 7.91109375 10.31640625 7.9296875 11.4453125 C7.95289063 12.28835937 7.97609375 13.13140625 8 14 C6.68 14 5.36 14 4 14 C4 9.71 4 5.42 4 1 C2.68 1.33 1.36 1.66 0 2 C0 1.34 0 0.68 0 0 Z " fill="#0B0A08" transform="translate(172,82)"/>
<path d="M0 0 C1.42159033 0.1174868 2.83846585 0.29434602 4.25 0.5 C7.80401833 0.9505887 10.49523915 0.80108819 14 0 C17.17806781 0.4965731 20.03928745 1.76636977 23 3 C23 3.33 23 3.66 23 4 C15.41 4 7.82 4 0 4 C-0.33 3.01 -0.66 2.02 -1 1 C-0.67 0.67 -0.34 0.34 0 0 Z " fill="#D2C98D" transform="translate(116,49)"/>
<path d="M0 0 C4.29 0 8.58 0 13 0 C13 0.33 13 0.66 13 1 C11.02 1 9.04 1 7 1 C7.495 1.66 7.99 2.32 8.5 3 C10.48316621 6.96633241 10.22357461 9.60303262 10 14 C8.68 14 7.36 14 6 14 C5.9071875 12.14375 5.9071875 12.14375 5.8125 10.25 C5.39954963 6.70863773 5.20731335 6.19214408 2.4375 3.625 C1.633125 3.08875 0.82875 2.5525 0 2 C0 1.34 0 0.68 0 0 Z " fill="#7B704F" transform="translate(82,26)"/>
<path d="M0 0 C1.98 0 3.96 0 6 0 C6 4.95 6 9.9 6 15 C2 13 2 13 1 12 C0.76572222 9.98405418 0.58663876 7.961526 0.4375 5.9375 C0.35371094 4.83277344 0.26992188 3.72804688 0.18359375 2.58984375 C0.09271484 1.30787109 0.09271484 1.30787109 0 0 Z " fill="#625B3F" transform="translate(61,82)"/>
<path d="M0 0 C2.97 0 5.94 0 9 0 C10 4 10 4 9 6 C2.84765625 6.09765625 2.84765625 6.09765625 1 6 C0 5 0 5 -0.0625 2.4375 C-0.041875 1.633125 -0.02125 0.82875 0 0 Z " fill="#16120B" transform="translate(64,19)"/>
<path d="M0 0 C2.05078125 0.03255208 4.1015625 0.06510417 6.15234375 0.09765625 C6.53453142 1.75380282 6.86629477 3.42222649 7.15234375 5.09765625 C6.15234375 6.09765625 6.15234375 6.09765625 4.3046875 6.1953125 C2.25390625 6.16276042 0.203125 6.13020833 -1.84765625 6.09765625 C-2.22984392 4.44150968 -2.56160727 2.77308601 -2.84765625 1.09765625 C-1.84765625 0.09765625 -1.84765625 0.09765625 0 0 Z " fill="#15110B" transform="translate(148.84765625,18.90234375)"/>
<path d="M0 0 C3.14624993 -0.26218749 4.61837017 -0.24754367 7.3125 1.5 C7.869375 1.995 8.42625 2.49 9 3 C8.625 5.4375 8.625 5.4375 8 8 C7.01 8.495 7.01 8.495 6 9 C5.67 7.35 5.34 5.7 5 4 C-3.25 3.67 -11.5 3.34 -20 3 C-20 2.67 -20 2.34 -20 2 C-10.1 1.505 -10.1 1.505 0 1 C0 0.67 0 0.34 0 0 Z M4 5 C6 6 6 6 6 6 Z " fill="#96875B" transform="translate(137,51)"/>
<path d="M0 0 C3.67445406 4.40436818 6.89964612 10.36068634 8 16 C7.34 16.99 6.68 17.98 6 19 C5.82984375 18.43152344 5.6596875 17.86304687 5.484375 17.27734375 C3.85095576 12.07299201 2.30389445 7.37542779 -1 3 C-3.72243842 1.82950824 -6.03050172 1.44542474 -9 1 C-5.64203475 -1.11427441 -3.76142945 -1.25380982 0 0 Z " fill="#292419" transform="translate(135,7)"/>
<path d="M0 0 C3.63 0.66 7.26 1.32 11 2 C11 2.33 11 2.66 11 3 C9.35 3 7.7 3 6 3 C6 3.66 6 4.32 6 5 C7.32 5.66 8.64 6.32 10 7 C8.02090602 7.02686553 6.04171029 7.04633375 4.0625 7.0625 C2.96035156 7.07410156 1.85820313 7.08570312 0.72265625 7.09765625 C-2 7 -2 7 -3 6 C-3.04063832 4.33382885 -3.042721 2.66611905 -3 1 C-2.67 1.99 -2.34 2.98 -2 4 C-0.35 4 1.3 4 3 4 C2.01 3.67 1.02 3.34 0 3 C0 2.01 0 1.02 0 0 Z " fill="#A18B58" transform="translate(71,65)"/>
<path d="M0 0 C1.670625 0.061875 1.670625 0.061875 3.375 0.125 C2.80155063 2.99224686 2.5135485 3.9864515 0.375 6.125 C-3.25 6.25 -3.25 6.25 -6.625 6.125 C-5.71577947 1.57889733 -4.95184304 0.17075321 0 0 Z " fill="#0F0C09" transform="translate(142.625,37.875)"/>
<path d="M0 0 C1.75 0.125 1.75 0.125 4 1 C5.38938077 2.96147874 6.7260411 4.96166576 8 7 C8.66 7.33 9.32 7.66 10 8 C9.67 5.36 9.34 2.72 9 0 C9.99 0.33 10.98 0.66 12 1 C11.67 4.96 11.34 8.92 11 13 C10.34 13 9.68 13 9 13 C7.57831868 11.2614204 6.23550882 9.45776019 4.9375 7.625 C4.22464844 6.62726563 3.51179687 5.62953125 2.77734375 4.6015625 C1 2 1 2 0 0 Z " fill="#786D48" transform="translate(179,83)"/>
<path d="M0 0 C6.75 1.75 6.75 1.75 9 4 C9.3125 6.5 9.3125 6.5 9 9 C5.1496895 11.56687367 3.41430237 10.83288724 -1 10 C-1 8.68 -1 7.36 -1 6 C-0.34 6 0.32 6 1 6 C1.33 6.66 1.66 7.32 2 8 C3.65 8 5.3 8 7 8 C7 7.01 7 6.02 7 5 C4.69 4.01 2.38 3.02 0 2 C0 1.34 0 0.68 0 0 Z " fill="#474433" transform="translate(51,87)"/>
<path d="M0 0 C0.99 0 1.98 0 3 0 C3 4.62 3 9.24 3 14 C1.68 13.67 0.36 13.34 -1 13 C-0.67 8.71 -0.34 4.42 0 0 Z " fill="#989065" transform="translate(128,83)"/>
<path d="M0 0 C-0.99 0.598125 -1.98 1.19625 -3 1.8125 C-3.99 2.534375 -4.98 3.25625 -6 4 C-6 4.99 -6 5.98 -6 7 C-3.03 7.495 -3.03 7.495 0 8 C0 8.66 0 9.32 0 10 C-3.375 10.125 -3.375 10.125 -7 10 C-9 8 -9 8 -9.25 5 C-9 2 -9 2 -7 0 C-3.99340864 -1.066855 -3.14820941 -1.04940314 0 0 Z " fill="#B0A06D" transform="translate(143,37)"/>
<path d="M0 0 C0.99 0 1.98 0 3 0 C3 4.62 3 9.24 3 14 C2.01 14 1.02 14 0 14 C0 9.38 0 4.76 0 0 Z " fill="#726544" transform="translate(29,83)"/>
<path d="M0 0 C1.875 0.3125 1.875 0.3125 4 1 C6 4 6 4 6 7 C8.64 7 11.28 7 14 7 C14 7.33 14 7.66 14 8 C11.03 8 8.06 8 5 8 C4.67 11.3 4.34 14.6 4 18 C3.67 18 3.34 18 3 18 C2.92652344 16.55367187 2.92652344 16.55367187 2.8515625 15.078125 C2.77679688 13.81484375 2.70203125 12.5515625 2.625 11.25 C2.55539063 9.99703125 2.48578125 8.7440625 2.4140625 7.453125 C2.04676696 4.39001879 1.60288714 2.58025734 0 0 Z " fill="#ADAA79" transform="translate(101,43)"/>
<path d="M0 0 C0.33 0 0.66 0 1 0 C1 1.98 1 3.96 1 6 C1.66 6.33 2.32 6.66 3 7 C-0.01490557 8.00496852 -2.04181692 8.10335303 -5.1875 8.0625 C-6.53908203 8.04896484 -6.53908203 8.04896484 -7.91796875 8.03515625 C-8.60503906 8.02355469 -9.29210937 8.01195312 -10 8 C-10 7.67 -10 7.34 -10 7 C-8.35 7 -6.7 7 -5 7 C-6.32 5.35 -7.64 3.7 -9 2 C-5.17902761 2.53069061 -2.93828597 3.49701566 0 6 C0 4.02 0 2.04 0 0 Z " fill="#C0AC72" transform="translate(87,34)"/>
<path d="M0 0 C2.0625 2.25 2.0625 2.25 4 5 C3.75 7.3125 3.75 7.3125 3 9 C4.32 9.33 5.64 9.66 7 10 C4.22396483 10.7658028 1.89326812 11 -1 11 C-1.125 3.375 -1.125 3.375 0 0 Z " fill="#7A663F" transform="translate(68,59)"/>
<path d="M0 0 C1.3303125 0.11794922 1.3303125 0.11794922 2.6875 0.23828125 C5 0.6875 5 0.6875 7 2.6875 C5.08416353 2.8833009 3.16727461 3.06882214 1.25 3.25 C-0.35101563 3.40662109 -0.35101563 3.40662109 -1.984375 3.56640625 C-4.64141204 3.67310074 -6.49960572 3.50680395 -9 2.6875 C-8.34 2.6875 -7.68 2.6875 -7 2.6875 C-7 2.0275 -7 1.3675 -7 0.6875 C-4.42121756 -0.60189122 -2.85485837 -0.27801673 0 0 Z " fill="#BDAF77" transform="translate(130,59.3125)"/>
<path d="M0 0 C1.65 0 3.3 0 5 0 C5 0.66 5 1.32 5 2 C5.66 2.33 6.32 2.66 7 3 C6.01 3 5.02 3 4 3 C4 4.65 4 6.3 4 8 C2.68 7.67 1.36 7.34 0 7 C0 4.69 0 2.38 0 0 Z " fill="#1F1B11" transform="translate(211,84)"/>
<path d="M0 0 C2.46278801 2.46278801 2.99771255 4.70676982 4 8 C2.35 8 0.7 8 -1 8 C-1 9.32 -1 10.64 -1 12 C-1.99 11.67 -2.98 11.34 -4 11 C-2.68 7.37 -1.36 3.74 0 0 Z " fill="#251F19" transform="translate(5,85)"/>
<path d="M0 0 C3.375 -0.125 3.375 -0.125 7 0 C7.66 0.66 8.32 1.32 9 2 C8.34 2 7.68 2 7 2 C7 3.65 7 5.3 7 7 C5.68 7 4.36 7 3 7 C3 5.02 3 3.04 3 1 C2.01 1.33 1.02 1.66 0 2 C0 1.34 0 0.68 0 0 Z " fill="#242319" transform="translate(76,82)"/>
<path d="M0 0 C0.66 0.33 1.32 0.66 2 1 C-2.455 8.425 -2.455 8.425 -7 16 C-8 13 -8 13 -6.85546875 10.37109375 C-6.02982422 8.91896484 -6.02982422 8.91896484 -5.1875 7.4375 C-4.64480469 6.46683594 -4.10210937 5.49617187 -3.54296875 4.49609375 C-2 2 -2 2 0 0 Z " fill="#2C251B" transform="translate(86,6)"/>
<path d="M0 0 C0.66 0 1.32 0 2 0 C5.25968109 9.41002278 5.25968109 9.41002278 6 14 C5.01 14 4.02 14 3 14 C2.49307308 12.4188708 1.99473557 10.83498617 1.5 9.25 C1.2215625 8.36828125 0.943125 7.4865625 0.65625 6.578125 C0 4 0 4 0 0 Z " fill="#B3B27F" transform="translate(108,83)"/>
<path d="M0 0 C0.33 0.66 0.66 1.32 1 2 C3.31 2 5.62 2 8 2 C8 2.66 8 3.32 8 4 C6.35 4 4.7 4 3 4 C3.33 5.65 3.66 7.3 4 9 C3.01 9.495 3.01 9.495 2 10 C-1.125 3.375 -1.125 3.375 0 0 Z " fill="#A38A57" transform="translate(146,23)"/>
<path d="M0 0 C1.32 0 2.64 0 4 0 C3.67 4.95 3.34 9.9 3 15 C2.34 14.67 1.68 14.34 1 14 C-0.41904116 9.45906828 -0.09226843 4.7056901 0 0 Z " fill="#2D291C" transform="translate(23,82)"/>
<path d="M0 0 C0.66 1.32 1.32 2.64 2 4 C0.94921875 5.48828125 0.94921875 5.48828125 -1 7 C-4.35546875 7.29296875 -4.35546875 7.29296875 -8.1875 7.1875 C-9.45980469 7.16042969 -10.73210937 7.13335937 -12.04296875 7.10546875 C-13.01878906 7.07066406 -13.99460937 7.03585938 -15 7 C-15 6.67 -15 6.34 -15 6 C-14.33613281 5.98582031 -13.67226562 5.97164063 -12.98828125 5.95703125 C-6.82744805 5.72950819 -6.82744805 5.72950819 -1.875 2.4375 C-0.946875 1.2309375 -0.946875 1.2309375 0 0 Z " fill="#D1C98A" transform="translate(103,63)"/>
<path d="M0 0 C3.57011026 3.732388 4.10913442 8.0949989 5 13 C4.34 13 3.68 13 3 13 C2.29819469 11.5903653 1.61406042 10.17192359 0.9375 8.75 C0.55464844 7.96109375 0.17179688 7.1721875 -0.22265625 6.359375 C-1.08564091 3.74006478 -0.93045933 2.55144824 0 0 Z " fill="#766440" transform="translate(7,83)"/>
<path d="M0 0 C7.625 0.625 7.625 0.625 11 4 C7.04 4 3.08 4 -1 4 C-0.67 2.68 -0.34 1.36 0 0 Z " fill="#BDAE76" transform="translate(128,49)"/>
<path d="M0 0 C2.81228361 0.35536481 3.82581484 0.80350348 5.73828125 2.9609375 C6.25777344 3.75757812 6.77726562 4.55421875 7.3125 5.375 C7.84488281 6.16648437 8.37726562 6.95796875 8.92578125 7.7734375 C10 10 10 10 9 13 C7.49710267 11.02297434 5.99758658 9.0435417 4.5 7.0625 C4.07074219 6.49853516 3.64148438 5.93457031 3.19921875 5.35351562 C0 1.11328125 0 1.11328125 0 0 Z " fill="#8B774B" transform="translate(15,83)"/>
<path d="M0 0 C2.475 0.495 2.475 0.495 5 1 C4.67 2.65 4.34 4.3 4 6 C2.68 6 1.36 6 0 6 C0 4.02 0 2.04 0 0 Z " fill="#0B0A07" transform="translate(79,90)"/>
<path d="M0 0 C0.33 0 0.66 0 1 0 C1.25 2.8125 1.25 2.8125 1 6 C-1.2206051 8.467339 -2.43569203 8.96152446 -5.75 9.1875 C-6.4925 9.125625 -7.235 9.06375 -8 9 C-8.33 9.66 -8.66 10.32 -9 11 C-9 10.01 -9 9.02 -9 8 C-7.35 8 -5.7 8 -4 8 C-3.71125 7.05125 -3.4225 6.1025 -3.125 5.125 C-2 2 -2 2 0 0 Z " fill="#7B643E" transform="translate(158,19)"/>
<path d="M0 0 C1.65 0 3.3 0 5 0 C5 0.66 5 1.32 5 2 C5.66 2.33 6.32 2.66 7 3 C5.25 4.125 5.25 4.125 3 5 C0.75 4.125 0.75 4.125 -1 3 C-0.67 2.01 -0.34 1.02 0 0 Z " fill="#0D0C09" transform="translate(118,84)"/>
<path d="M0 0 C1.670625 0.061875 1.670625 0.061875 3.375 0.125 C3.045 1.445 2.715 2.765 2.375 4.125 C0.395 3.465 -1.585 2.805 -3.625 2.125 C-3.955 3.775 -4.285 5.425 -4.625 7.125 C-4.955 7.125 -5.285 7.125 -5.625 7.125 C-5.75 4.75 -5.75 4.75 -5.625 2.125 C-3.625 0.125 -3.625 0.125 0 0 Z " fill="#464532" transform="translate(151.625,81.875)"/>
<path d="M0 0 C0.99 0 1.98 0 3 0 C3 1.98 3 3.96 3 6 C1.68 6 0.36 6 -1 6 C-1.042721 4.33388095 -1.04063832 2.66617115 -1 1 C-0.67 0.67 -0.34 0.34 0 0 Z " fill="#16120C" transform="translate(73,51)"/>
<path d="M0 0 C0.66 1.32 1.32 2.64 2 4 C1.01 5.485 1.01 5.485 0 7 C0 6.01 0 5.02 0 4 C-0.515625 4.20625 -1.03125 4.4125 -1.5625 4.625 C-5.03265671 5.15887026 -7.70635791 4.07676761 -11 3 C-11 2.67 -11 2.34 -11 2 C-7.7 2 -4.4 2 -1 2 C-0.67 1.34 -0.34 0.68 0 0 Z " fill="#A18B57" transform="translate(77,15)"/>
<path d="M0 0 C1.32 0.33 2.64 0.66 4 1 C3.0409375 1.6496875 3.0409375 1.6496875 2.0625 2.3125 C-1.1101168 6.44651583 -0.82469028 10.91601822 -1 16 C-1.33 16 -1.66 16 -2 16 C-2.05402274 13.89611431 -2.09280256 11.79183286 -2.125 9.6875 C-2.14820312 8.51574219 -2.17140625 7.34398437 -2.1953125 6.13671875 C-2 3 -2 3 0 0 Z " fill="#33291B" transform="translate(75,24)"/>
<path d="M0 0 C4.455 1.98 4.455 1.98 9 4 C8.67 4.99 8.34 5.98 8 7 C5.36 5.68 2.72 4.36 0 3 C0 2.01 0 1.02 0 0 Z " fill="#B7B682" transform="translate(116,86)"/>
<path d="M0 0 C2.45823172 3.68734758 3.01242616 6.69699971 4 11 C3.34 11 2.68 11 2 11 C1.67 11.66 1.34 12.32 1 13 C-0.00496852 9.98509443 -0.10335303 7.95818308 -0.0625 4.8125 C-0.05347656 3.91144531 -0.04445313 3.01039062 -0.03515625 2.08203125 C-0.02355469 1.39496094 -0.01195313 0.70789062 0 0 Z " fill="#2E2518" transform="translate(68,49)"/>
<path d="M0 0 C1.66611905 -0.042721 3.33382885 -0.04063832 5 0 C6 1 6 1 6.0625 4.5625 C6.041875 5.696875 6.02125 6.83125 6 8 C5.01 8.495 5.01 8.495 4 9 C3.71125 7.88625 3.4225 6.7725 3.125 5.625 C2.30758671 1.99708908 2.30758671 1.99708908 0 0 Z " fill="#A5915D" transform="translate(73,49)"/>
<path d="M0 0 C2.31 0 4.62 0 7 0 C7 1.32 7 2.64 7 4 C6.34 4 5.68 4 5 4 C5 3.34 5 2.68 5 2 C2.69 2.66 0.38 3.32 -2 4 C-1.34 2.68 -0.68 1.36 0 0 Z " fill="#4B4C39" transform="translate(118,82)"/>
<path d="M0 0 C2 2 2 2 2.1953125 4.3828125 C2.17210937 5.28773437 2.14890625 6.19265625 2.125 7.125 C2.10695312 8.03507812 2.08890625 8.94515625 2.0703125 9.8828125 C2.04710937 10.58148438 2.02390625 11.28015625 2 12 C-0.18975773 8.71536341 -0.99806563 5.79303725 -2 2 C-1.34 2 -0.68 2 0 2 C0 1.34 0 0.68 0 0 Z " fill="#17120C" transform="translate(148,33)"/>
<path d="M0 0 C3 1 3 1 4.1875 2.875 C5 5 5 5 5 8 C4.34 8 3.68 8 3 8 C1.02 4.535 1.02 4.535 -1 1 C-0.67 0.67 -0.34 0.34 0 0 Z " fill="#AEA06B" transform="translate(132,9)"/>
<path d="M0 0 C3.4375 0.8125 3.4375 0.8125 7 2 C7.33 2.99 7.66 3.98 8 5 C4.5625 4.1875 4.5625 4.1875 1 3 C0.67 2.01 0.34 1.02 0 0 Z " fill="#A69D6E" transform="translate(147,87)"/>
<path d="M0 0 C3.375 0.75 3.375 0.75 7 2 C7.66 3.32 8.32 4.64 9 6 C4.545 4.02 4.545 4.02 0 2 C0 1.34 0 0.68 0 0 Z " fill="#9F9366" transform="translate(51,87)"/>
<path d="M0 0 C1.32 0.33 2.64 0.66 4 1 C3.67 1.33 3.34 1.66 3 2 C3.99 2.99 4.98 3.98 6 5 C4.02 5 2.04 5 0 5 C0 3.35 0 1.7 0 0 Z " fill="#605337" transform="translate(76,35)"/>
<path d="M0 0 C3.63 0 7.26 0 11 0 C7 3 7 3 4.9375 2.8125 C3 2 3 2 0 0 Z " fill="#C3B077" transform="translate(80,24)"/>
<path d="M0 0 C1.45792884 -0.05399736 2.91642712 -0.09279177 4.375 -0.125 C5.18710938 -0.14820313 5.99921875 -0.17140625 6.8359375 -0.1953125 C9 0 9 0 11 2 C6.99799622 3.60080151 3.95443764 2.29279692 0 1 C0 0.67 0 0.34 0 0 Z " fill="#D1C78B" transform="translate(92,41)"/>
<path d="M0 0 C-6.75 4 -6.75 4 -9 4 C-8.25 2.0625 -8.25 2.0625 -7 0 C-4.04680182 -1.23843794 -3.12561472 -1.04187157 0 0 Z " fill="#A79563" transform="translate(143,37)"/>
<path d="M0 0 C1.9375 0.75 1.9375 0.75 3.9375 2.75 C0.5625 3.375 0.5625 3.375 -3.0625 3.75 C-3.7225 3.09 -4.3825 2.43 -5.0625 1.75 C-2.0625 -0.25 -2.0625 -0.25 0 0 Z " fill="#9D9060" transform="translate(88.0625,3.25)"/>
</svg>
